<svg width="1323" height="760" viewBox="0 0 1323 760" fill="none" xmlns="http://www.w3.org/2000/svg">
<path d="M330.433 480.298L342.442 468.845L347.731 484.574L337.86 487.378L330.433 480.298Z" fill="url(#paint0_linear_464_2155)"/>
<path d="M342.441 468.844L347.73 484.573L337.86 487.377L342.441 468.844Z" fill="#FBE043"/>
<path d="M329.973 482.152L337.4 489.233L347.27 486.429L335.72 496.028L329.973 482.152Z" fill="url(#paint1_linear_464_2155)"/>
<path d="M337.4 489.234L347.271 486.43L335.72 496.029L337.4 489.234ZM330.431 480.3L339.996 478.732L347.729 484.577L337.858 487.381L330.431 480.3Z" fill="#011F1A"/>
<path d="M339.996 478.73L347.728 484.575L337.858 487.379L339.996 478.73Z" fill="#011F1A"/>
<path d="M499.726 517.987L500.938 515.223" stroke="#FBE043" stroke-width="2.67761"/>
<path d="M494.396 515.851L497.16 517.062" stroke="#FBE043" stroke-width="2.67761"/>
<path d="M503.816 519.784L505.027 517.02" stroke="#FBE043" stroke-width="2.67761"/>
<path d="M501.135 528.909L501.719 530.303C503.446 534.43 499.162 538.506 495.127 536.575L490.177 534.206L493.889 525.734M501.135 528.909L493.889 525.734M501.135 528.909L502.208 528.558C506.455 527.166 506.74 521.266 502.646 519.472L497.602 517.262L493.889 525.734" stroke="url(#paint2_linear_464_2155)" stroke-width="2.67761"/>
<path d="M486.978 532.777L489.742 533.988" stroke="#011F1A" stroke-width="2.67761"/>
<path d="M490.902 538.12L492.113 535.355" stroke="#011F1A" stroke-width="2.67761"/>
<path d="M495 539.913L496.211 537.148" stroke="#011F1A" stroke-width="2.67761"/>
<path d="M419.322 556.151L419.875 553.914" stroke="#FBE043" stroke-width="2.04459"/>
<path d="M415.072 573.331L415.625 571.094" stroke="#011F1A" stroke-width="2.04459"/>
<path d="M412.063 566.765V566.765C411.703 568.224 412.593 569.699 414.052 570.059L416.768 570.731C418.599 571.183 420.449 570.066 420.902 568.236L421.051 567.634C421.503 565.804 420.386 563.953 418.556 563.5L416.512 562.995C414.682 562.543 413.565 560.692 414.017 558.862L414.087 558.58C414.539 556.749 416.39 555.632 418.22 556.085L421.124 556.803C422.479 557.138 423.307 558.509 422.972 559.864V559.864" stroke="url(#paint3_linear_464_2155)" stroke-width="2.04459"/>
<path d="M496.245 545.036C473.711 554.593 455.025 547.452 448.009 544.667L414.271 531.025C401.32 525.788 387.064 534.86 386.322 548.81L386.289 549.43C385.879 557.134 394.704 561.762 400.808 557.045V557.045C407.408 551.945 406.376 541.692 398.891 538.01L389.355 533.319L363.596 520.647L322.48 499.977" stroke="url(#paint4_linear_464_2155)" stroke-width="2.03977"/>
<g opacity="0.3">
<path d="M887.112 589.608L877.901 345.541L1102.9 440.566L1037.59 576.74L887.112 589.608Z" fill="url(#paint5_linear_464_2155)"/>
<path d="M877.91 345.52L1102.91 440.544L1037.6 576.718L877.91 345.52Z" fill="#FBE043"/>
<path d="M887.145 589.623L963.1 468.862L1102.93 440.58L1037.62 576.755L887.145 589.623Z" fill="#FE8F1A"/>
<path d="M963.078 468.852L1102.91 440.57L1037.6 576.744L963.078 468.852Z" fill="#FE8F1A"/>
</g>
<g opacity="0.3">
<circle cx="195.333" cy="195.332" r="138.37" transform="rotate(41.5597 195.333 195.332)" fill="url(#paint6_linear_464_2155)"/>
<g filter="url(#filter0_bf_464_2155)">
<ellipse cx="204.164" cy="193.599" rx="70.2915" ry="71.4762" transform="rotate(41.5597 204.164 193.599)" fill="#FBE043"/>
</g>
</g>
<path d="M908 113.5C908 144.975 880.986 171.5 849.5 171.5C833.802 171.5 821.569 164.032 813.245 152.614C804.913 141.184 800.5 125.792 800.5 110C800.5 94.3282 808.189 84.1102 819.83 77.7806C831.505 71.4326 847.159 69 863 69C878.823 69 890.039 72.3018 897.308 79.4479C904.575 86.5922 908 97.6805 908 113.5Z" stroke="url(#paint7_linear_464_2155)"/>
<path d="M910 105C910 136.475 882.986 163 851.5 163C835.802 163 823.569 155.532 815.245 144.114C806.913 132.684 802.5 117.292 802.5 101.5C802.5 85.8282 810.189 75.6102 821.83 69.2806C833.505 62.9326 849.159 60.5 865 60.5C880.823 60.5 892.039 63.8018 899.308 70.9479C906.575 78.0922 910 89.1805 910 105Z" stroke="url(#paint8_linear_464_2155)"/>
<g filter="url(#filter1_d_464_2155)">
<circle cx="835.095" cy="97.7973" r="9.77377" transform="rotate(41.5597 835.095 97.7973)" fill="url(#paint9_linear_464_2155)"/>
<g filter="url(#filter2_bf_464_2155)">
<ellipse cx="835.717" cy="97.6771" rx="4.96504" ry="5.04872" transform="rotate(41.5597 835.717 97.6771)" fill="#FBE043"/>
</g>
</g>
<g opacity="0.5">
<ellipse cx="1451.06" cy="218.041" rx="45.186" ry="45.9476" transform="rotate(41.5597 1451.06 218.041)" fill="#FBE043"/>
</g>
<path d="M246.97 433.2C231.57 433.2 217.57 430.6 204.97 425.4C192.57 420 182.27 412.3 174.07 402.3L206.47 363.9C212.07 371.1 217.87 376.6 223.87 380.4C229.87 384 236.17 385.8 242.77 385.8C260.37 385.8 269.17 375.6 269.17 355.2V264.9H196.57V219H327.97V351.6C327.97 379 321.07 399.5 307.27 413.1C293.47 426.5 273.37 433.2 246.97 433.2ZM433.763 431.7C420.563 431.7 408.663 429.1 398.063 423.9C387.663 418.7 379.463 410.6 373.463 399.6C367.663 388.4 364.763 374.3 364.763 357.3V266.4H421.763V348C421.763 360.6 424.063 369.6 428.663 375C433.463 380.4 440.163 383.1 448.763 383.1C454.363 383.1 459.463 381.8 464.063 379.2C468.663 376.6 472.363 372.5 475.163 366.9C477.963 361.1 479.363 353.7 479.363 344.7V266.4H536.363V429H482.063V383.1L492.563 396C486.963 408 478.863 417 468.263 423C457.663 428.8 446.163 431.7 433.763 431.7ZM632.177 431.7C618.377 431.7 604.877 430.1 591.677 426.9C578.677 423.7 568.177 419.7 560.177 414.9L577.277 375.9C584.877 380.5 593.777 384.2 603.977 387C614.177 389.6 624.177 390.9 633.977 390.9C643.577 390.9 650.177 389.9 653.777 387.9C657.577 385.9 659.477 383.2 659.477 379.8C659.477 376.6 657.677 374.3 654.077 372.9C650.677 371.3 646.077 370.1 640.277 369.3C634.677 368.5 628.477 367.6 621.677 366.6C614.877 365.6 607.977 364.3 600.977 362.7C594.177 360.9 587.877 358.3 582.077 354.9C576.477 351.3 571.977 346.5 568.577 340.5C565.177 334.5 563.477 326.9 563.477 317.7C563.477 307.3 566.477 298.1 572.477 290.1C578.677 281.9 587.677 275.5 599.477 270.9C611.277 266.1 625.677 263.7 642.677 263.7C654.077 263.7 665.577 264.9 677.177 267.3C688.977 269.5 698.877 272.9 706.877 277.5L689.777 316.2C681.777 311.6 673.777 308.5 665.777 306.9C657.777 305.1 650.177 304.2 642.977 304.2C633.377 304.2 626.577 305.3 622.577 307.5C618.777 309.7 616.877 312.4 616.877 315.6C616.877 318.8 618.577 321.3 621.977 323.1C625.377 324.7 629.877 326 635.477 327C641.277 327.8 647.577 328.7 654.377 329.7C661.177 330.5 667.977 331.8 674.777 333.6C681.777 335.4 688.077 338.1 693.677 341.7C699.477 345.1 704.077 349.8 707.477 355.8C710.877 361.6 712.577 369.1 712.577 378.3C712.577 388.3 709.477 397.3 703.277 405.3C697.277 413.3 688.277 419.7 676.277 424.5C664.477 429.3 649.777 431.7 632.177 431.7ZM809.74 431.7C788.94 431.7 772.74 426.6 761.14 416.4C749.54 406 743.74 390.4 743.74 369.6V230.1H800.74V369C800.74 374.8 802.34 379.4 805.54 382.8C808.74 386 812.84 387.6 817.84 387.6C824.64 387.6 830.44 385.9 835.24 382.5L849.34 422.4C844.54 425.6 838.64 427.9 831.64 429.3C824.64 430.9 817.34 431.7 809.74 431.7ZM720.04 315V272.4H837.94V315H720.04ZM1066.02 433.2C1049.42 433.2 1034.02 430.6 1019.82 425.4C1005.82 420 993.624 412.4 983.224 402.6C973.024 392.8 965.024 381.3 959.224 368.1C953.424 354.7 950.524 340 950.524 324C950.524 308 953.424 293.4 959.224 280.2C965.024 266.8 973.024 255.2 983.224 245.4C993.624 235.6 1005.82 228.1 1019.82 222.9C1034.02 217.5 1049.42 214.8 1066.02 214.8C1085.42 214.8 1102.72 218.2 1117.92 225C1133.32 231.8 1146.12 241.6 1156.32 254.4L1118.52 288.6C1111.72 280.6 1104.22 274.5 1096.02 270.3C1088.02 266.1 1079.02 264 1069.02 264C1060.42 264 1052.52 265.4 1045.32 268.2C1038.12 271 1031.92 275.1 1026.72 280.5C1021.72 285.7 1017.72 292 1014.72 299.4C1011.92 306.8 1010.52 315 1010.52 324C1010.52 333 1011.92 341.2 1014.72 348.6C1017.72 356 1021.72 362.4 1026.72 367.8C1031.92 373 1038.12 377 1045.32 379.8C1052.52 382.6 1060.42 384 1069.02 384C1079.02 384 1088.02 381.9 1096.02 377.7C1104.22 373.5 1111.72 367.4 1118.52 359.4L1156.32 393.6C1146.12 406.2 1133.32 416 1117.92 423C1102.72 429.8 1085.42 433.2 1066.02 433.2ZM1180.11 429V266.4H1234.41V313.8L1226.31 300.3C1231.11 288.1 1238.91 279 1249.71 273C1260.51 266.8 1273.61 263.7 1289.01 263.7V315C1286.41 314.6 1284.11 314.4 1282.11 314.4C1280.31 314.2 1278.31 314.1 1276.11 314.1C1264.51 314.1 1255.11 317.3 1247.91 323.7C1240.71 329.9 1237.11 340.1 1237.11 354.3V429H1180.11ZM1345.41 489.9C1336.81 489.9 1328.11 488.5 1319.31 485.7C1310.71 483.1 1303.71 479.6 1298.31 475.2L1318.11 435.3C1321.51 438.3 1325.41 440.6 1329.81 442.2C1334.41 444 1338.91 444.9 1343.31 444.9C1349.51 444.9 1354.41 443.5 1358.01 440.7C1361.61 437.9 1364.71 433.5 1367.31 427.5L1374.81 408.6L1379.31 402.9L1434.51 266.4H1488.81L1418.61 435.6C1413.01 449.6 1406.51 460.5 1399.11 468.3C1391.91 476.3 1383.81 481.9 1374.81 485.1C1366.01 488.3 1356.21 489.9 1345.41 489.9ZM1367.61 435.9L1295.91 266.4H1354.41L1407.21 397.8L1367.61 435.9ZM1605.85 431.7C1592.05 431.7 1580.25 428.7 1570.45 422.7C1560.65 416.5 1553.15 407.3 1547.95 395.1C1542.95 382.7 1540.45 366.9 1540.45 347.7C1540.45 328.3 1542.85 312.5 1547.65 300.3C1552.45 287.9 1559.65 278.7 1569.25 272.7C1579.05 266.7 1591.25 263.7 1605.85 263.7C1620.65 263.7 1634.05 267.2 1646.05 274.2C1658.25 281 1667.85 290.7 1674.85 303.3C1682.05 315.7 1685.65 330.5 1685.65 347.7C1685.65 364.9 1682.05 379.8 1674.85 392.4C1667.85 405 1658.25 414.7 1646.05 421.5C1634.05 428.3 1620.65 431.7 1605.85 431.7ZM1503.55 487.2V266.4H1557.85V294L1557.55 347.7L1560.55 401.7V487.2H1503.55ZM1593.85 386.4C1600.25 386.4 1605.95 384.9 1610.95 381.9C1616.15 378.9 1620.25 374.5 1623.25 368.7C1626.45 362.9 1628.05 355.9 1628.05 347.7C1628.05 339.5 1626.45 332.5 1623.25 326.7C1620.25 320.9 1616.15 316.5 1610.95 313.5C1605.95 310.5 1600.25 309 1593.85 309C1587.45 309 1581.65 310.5 1576.45 313.5C1571.45 316.5 1567.35 320.9 1564.15 326.7C1561.15 332.5 1559.65 339.5 1559.65 347.7C1559.65 355.9 1561.15 362.9 1564.15 368.7C1567.35 374.5 1571.45 378.9 1576.45 381.9C1581.65 384.9 1587.45 386.4 1593.85 386.4ZM1714.84 429V219H1774.24V429H1714.84ZM1861.2 429V266.1H1796.7V219H1984.8V266.1H1920.6V429H1861.2Z" fill="url(#paint10_linear_464_2155)"/>
<defs>
<filter id="filter0_bf_464_2155" x="14.8788" y="4.17178" width="378.571" height="378.856" filterUnits="userSpaceOnUse" color-interpolation-filters="sRGB">
<feFlood flood-opacity="0" result="BackgroundImageFix"/>
<feGaussianBlur in="BackgroundImageFix" stdDeviation="15.7958"/>
<feComposite in2="SourceAlpha" operator="in" result="effect1_backgroundBlur_464_2155"/>
<feBlend mode="normal" in="SourceGraphic" in2="effect1_backgroundBlur_464_2155" result="shape"/>
<feGaussianBlur stdDeviation="59.2344" result="effect2_foregroundBlur_464_2155"/>
</filter>
<filter id="filter1_d_464_2155" x="807.32" y="74.0234" width="55.5469" height="55.5469" filterUnits="userSpaceOnUse" color-interpolation-filters="sRGB">
<feFlood flood-opacity="0" result="BackgroundImageFix"/>
<feColorMatrix in="SourceAlpha" type="matrix" values="0 0 0 0 0 0 0 0 0 0 0 0 0 0 0 0 0 0 127 0" result="hardAlpha"/>
<feOffset dy="4"/>
<feGaussianBlur stdDeviation="9"/>
<feComposite in2="hardAlpha" operator="out"/>
<feColorMatrix type="matrix" values="0 0 0 0 0.984314 0 0 0 0 0.878431 0 0 0 0 0.262745 0 0 0 1 0"/>
<feBlend mode="normal" in2="BackgroundImageFix" result="effect1_dropShadow_464_2155"/>
<feBlend mode="normal" in="SourceGraphic" in2="effect1_dropShadow_464_2155" result="shape"/>
</filter>
<filter id="filter2_bf_464_2155" x="822.347" y="84.296" width="26.74" height="26.7595" filterUnits="userSpaceOnUse" color-interpolation-filters="sRGB">
<feFlood flood-opacity="0" result="BackgroundImageFix"/>
<feGaussianBlur in="BackgroundImageFix" stdDeviation="1.11574"/>
<feComposite in2="SourceAlpha" operator="in" result="effect1_backgroundBlur_464_2155"/>
<feBlend mode="normal" in="SourceGraphic" in2="effect1_backgroundBlur_464_2155" result="shape"/>
<feGaussianBlur stdDeviation="4.18402" result="effect2_foregroundBlur_464_2155"/>
</filter>
<linearGradient id="paint0_linear_464_2155" x1="337.835" y1="469.244" x2="335.734" y2="487.128" gradientUnits="userSpaceOnUse">
<stop stop-color="#FF7E11"/>
<stop offset="1" stop-color="#FBE043"/>
</linearGradient>
<linearGradient id="paint1_linear_464_2155" x1="334.146" y1="484.158" x2="332.29" y2="495.465" gradientUnits="userSpaceOnUse">
<stop stop-color="#FF7E11"/>
<stop offset="1" stop-color="#FBE043"/>
</linearGradient>
<linearGradient id="paint2_linear_464_2155" x1="496.6" y1="519.548" x2="495.735" y2="534.424" gradientUnits="userSpaceOnUse">
<stop stop-color="#FBE043"/>
<stop offset="0.395833" stop-color="#FF7E11"/>
<stop offset="0.927083" stop-color="#011F1A"/>
</linearGradient>
<linearGradient id="paint3_linear_464_2155" x1="418.294" y1="553.97" x2="420.559" y2="570.493" gradientUnits="userSpaceOnUse">
<stop offset="0.116249" stop-color="#FBE043"/>
<stop offset="0.549575" stop-color="#FF7E11"/>
<stop offset="1" stop-color="#011F1A"/>
</linearGradient>
<linearGradient id="paint4_linear_464_2155" x1="317.627" y1="498.777" x2="504.619" y2="590.329" gradientUnits="userSpaceOnUse">
<stop stop-color="#FBE043"/>
<stop offset="0.427083" stop-color="#FF7E11"/>
<stop offset="0.958333" stop-color="#10C0AE"/>
</linearGradient>
<linearGradient id="paint5_linear_464_2155" x1="837.39" y1="400.219" x2="1014.1" y2="597.75" gradientUnits="userSpaceOnUse">
<stop offset="0.150618" stop-color="#186E61"/>
<stop offset="1" stop-color="#FF7E11"/>
</linearGradient>
<linearGradient id="paint6_linear_464_2155" x1="99.5659" y1="107.212" x2="307.485" y2="323.143" gradientUnits="userSpaceOnUse">
<stop stop-color="#186E61"/>
<stop offset="0.978434" stop-color="#FF7E11"/>
</linearGradient>
<linearGradient id="paint7_linear_464_2155" x1="805" y1="68.5" x2="874" y2="172.5" gradientUnits="userSpaceOnUse">
<stop stop-color="#FBE043"/>
<stop offset="0.546875" stop-color="#FF7E11"/>
<stop offset="0.9375" stop-color="#10C0AE"/>
</linearGradient>
<linearGradient id="paint8_linear_464_2155" x1="807" y1="60" x2="876" y2="164" gradientUnits="userSpaceOnUse">
<stop stop-color="#FBE043"/>
<stop offset="0.546875" stop-color="#FF7E11"/>
<stop offset="0.9375" stop-color="#10C0AE"/>
</linearGradient>
<linearGradient id="paint9_linear_464_2155" x1="828.331" y1="91.5729" x2="843.017" y2="106.825" gradientUnits="userSpaceOnUse">
<stop stop-color="#186E61"/>
<stop offset="0.978434" stop-color="#FF7E11"/>
</linearGradient>
<linearGradient id="paint10_linear_464_2155" x1="180" y1="195.643" x2="2023.71" y2="880.723" gradientUnits="userSpaceOnUse">
<stop stop-color="#FF7E11"/>
<stop offset="0.479167" stop-color="#FBE043"/>
</linearGradient>
</defs>
</svg>
