<svg width="82" height="82" viewBox="0 0 82 82" fill="none" xmlns="http://www.w3.org/2000/svg">
<g filter="url(#filter0_b_2_675)">
<rect width="82" height="82" rx="10" fill="url(#paint0_linear_2_675)"/>
<rect x="0.5" y="0.5" width="81" height="81" rx="9.5" stroke="url(#paint1_linear_2_675)" stroke-opacity="0.2"/>
</g>
<path d="M41.2553 19.4487C41.9121 19.7288 42.1633 20.2311 42.1343 20.9459C42.0956 21.8153 42.1246 22.6846 42.1246 23.5443C42.1246 24.2687 41.6127 24.8 40.9462 24.7903C40.2894 24.7807 39.8161 24.2591 39.8064 23.5443C39.8064 22.6749 39.8354 21.8056 39.7967 20.9459C39.7678 20.2408 40.0092 19.7385 40.6757 19.4584C40.8689 19.4487 41.0621 19.4487 41.2553 19.4487Z" fill="#39F063"/>
<path d="M59.4823 38.2458C59.2022 38.9026 58.6999 39.1538 57.9851 39.1248C57.1158 39.0862 56.2465 39.1151 55.3868 39.1151C54.6817 39.1151 54.1601 38.6322 54.1408 37.9753C54.1311 37.3089 54.6527 36.8066 55.3868 36.8066C56.2561 36.8066 57.1255 36.8355 57.9851 36.7969C58.6999 36.7679 59.1926 37.0191 59.4823 37.6759C59.4823 37.8594 59.4823 38.0526 59.4823 38.2458Z" fill="#39F063"/>
<path d="M45.4457 49.3601C42.3547 49.3601 39.2348 49.3601 36.0762 49.3601C36.0376 49.1959 35.9989 49.022 35.9506 48.8482C35.6415 47.805 35.0427 46.9839 34.1926 46.3174C32.2801 44.8299 30.9954 42.8981 30.3676 40.5508C28.6965 34.3399 32.908 27.9744 39.2541 27.1051C44.8758 26.342 50.0435 29.8001 51.3089 35.3252C52.2845 39.5946 50.9901 43.2168 47.6963 46.1049C47.0492 46.6748 46.402 47.2351 46.0156 48.0175C45.7935 48.4425 45.6486 48.8868 45.4457 49.3601ZM47.764 37.2184C47.735 36.9866 47.7157 36.7644 47.6867 36.5326C47.31 33.374 44.4315 30.8336 41.2536 30.8529C40.5678 30.8626 40.0269 31.3649 40.0269 32.012C40.0269 32.6399 40.5485 33.1422 41.2246 33.1615C43.6201 33.2484 45.3298 34.9678 45.4361 37.3826C45.4457 37.6144 45.5327 37.8559 45.6486 38.0491C45.9287 38.4934 46.4696 38.6576 46.9526 38.4934C47.4742 38.3292 47.764 37.8656 47.764 37.2184Z" fill="#39F063"/>
<path d="M36.3101 51.8556C39.4397 51.8556 42.5017 51.8556 45.5444 51.8556C45.5444 52.667 45.6313 53.488 45.525 54.2704C45.3512 55.5454 44.221 56.4437 42.9363 56.4631C41.6806 56.4824 40.4346 56.4727 39.1789 56.4631C37.7107 56.4631 36.6192 55.5454 36.4163 54.0772C36.3197 53.3624 36.339 52.6283 36.3101 51.8556Z" fill="#39F063"/>
<path d="M25.0857 39.1151C24.6028 39.1151 24.1198 39.1248 23.6368 39.1151C22.9607 39.1055 22.4487 38.6128 22.4487 37.9657C22.4487 37.3185 22.951 36.8066 23.6272 36.8066C24.6124 36.7969 25.6073 36.7969 26.5926 36.8066C27.2687 36.8162 27.7807 37.3088 27.7903 37.956C27.8 38.5935 27.2784 39.1055 26.6119 39.1151C26.0999 39.1248 25.5977 39.1151 25.0857 39.1151Z" fill="#39F063"/>
<path d="M28.8431 24.5198C28.9976 24.597 29.2971 24.684 29.4999 24.8772C30.234 25.5726 30.9488 26.2874 31.6539 27.0215C32.1079 27.4948 32.0886 28.2 31.6346 28.6443C31.1806 29.0886 30.4852 29.0983 30.0119 28.6346C29.2874 27.9295 28.5726 27.2147 27.8675 26.4903C27.5101 26.1232 27.4425 25.6885 27.6453 25.2249C27.8385 24.7613 28.2152 24.5584 28.8431 24.5198Z" fill="#39F063"/>
<path d="M54.4113 25.8335C54.3341 25.988 54.2375 26.2874 54.0443 26.4903C53.3585 27.2147 52.6437 27.9199 51.9289 28.6153C51.4363 29.0983 50.7311 29.0886 50.2772 28.6153C49.8328 28.1613 49.8328 27.4659 50.2965 26.9926C51.0016 26.2681 51.7164 25.5533 52.4408 24.8482C52.8079 24.4908 53.2426 24.4232 53.7062 24.626C54.1602 24.8385 54.3727 25.2153 54.4113 25.8335Z" fill="#39F063"/>
<path d="M51.2431 46.9198C51.3976 47.0067 51.7067 47.0937 51.9289 47.2965C52.6533 47.9727 53.3391 48.6778 54.0346 49.3829C54.5176 49.8755 54.5176 50.571 54.0636 51.0347C53.5999 51.4983 52.9045 51.508 52.4119 51.025C51.6971 50.3295 50.9919 49.6147 50.2868 48.9C49.9294 48.5426 49.8425 48.0982 50.0453 47.6346C50.2385 47.1903 50.6056 46.9681 51.2431 46.9198Z" fill="#39F063"/>
<path d="M28.8241 51.4016C28.2252 51.363 27.8582 51.1601 27.6553 50.7255C27.4428 50.2811 27.4815 49.8368 27.8195 49.4794C28.5537 48.7163 29.2974 47.9629 30.0702 47.2288C30.5145 46.8038 31.21 46.8424 31.6446 47.2674C32.0793 47.6925 32.1276 48.3879 31.7026 48.8323C30.9685 49.605 30.2247 50.3488 29.452 51.0829C29.2588 51.2664 28.969 51.334 28.8241 51.4016Z" fill="#39F063"/>
<defs>
<filter id="filter0_b_2_675" x="-50" y="-50" width="182" height="182" filterUnits="userSpaceOnUse" color-interpolation-filters="sRGB">
<feFlood flood-opacity="0" result="BackgroundImageFix"/>
<feGaussianBlur in="BackgroundImageFix" stdDeviation="25"/>
<feComposite in2="SourceAlpha" operator="in" result="effect1_backgroundBlur_2_675"/>
<feBlend mode="normal" in="SourceGraphic" in2="effect1_backgroundBlur_2_675" result="shape"/>
</filter>
<linearGradient id="paint0_linear_2_675" x1="-3.3255e-06" y1="-17" x2="82" y2="98" gradientUnits="userSpaceOnUse">
<stop stop-color="#292C31"/>
<stop offset="1" stop-color="#0D0D0D"/>
</linearGradient>
<linearGradient id="paint1_linear_2_675" x1="-1.24242" y1="-11.544" x2="82.6361" y2="-10.9701" gradientUnits="userSpaceOnUse">
<stop stop-color="white"/>
<stop offset="1" stop-color="white" stop-opacity="0"/>
</linearGradient>
</defs>
</svg>
