<svg width="38" height="26" viewBox="0 0 38 26" fill="none" xmlns="http://www.w3.org/2000/svg">
<path fill-rule="evenodd" clip-rule="evenodd" d="M0.138089 3.10602C0.0939255 3.25499 0.0497619 3.40397 0 3.55014V6.15228C0.0687492 6.1752 0.137499 6.20432 0.206249 6.23344C0.355209 6.29653 0.504171 6.35962 0.65313 6.35962C12.5512 6.36999 24.4597 6.36999 36.3682 6.36999H36.378C36.4058 6.36999 36.4355 6.37275 36.4653 6.37553C36.5356 6.38208 36.607 6.38873 36.6579 6.35962C36.7927 6.27668 37.0104 6.14191 37.0104 6.02787C37.0078 5.78691 37.0104 5.54466 37.013 5.30224C37.0208 4.57469 37.0286 3.84568 36.8964 3.14583C36.5232 1.22793 34.8644 0.00460758 32.8532 0.00460758H11.0098C10.2427 0.00460758 9.47549 0.00345569 8.70833 0.00230379C7.174 0 5.63968 -0.00230379 4.10535 0.00460758C2.51919 0.0149746 1.29588 0.719936 0.518353 2.09876C0.344186 2.4108 0.241138 2.75841 0.138089 3.10602ZM0 8.90131V21.9223C0.0438099 22.0571 0.0821425 22.1952 0.120695 22.3341C0.200742 22.6224 0.281738 22.9142 0.414682 23.1871C1.14038 24.6178 2.33259 25.3642 3.92912 25.4679C4.08117 25.4748 4.23322 25.4725 4.38527 25.4702C4.46129 25.469 4.53732 25.4679 4.61334 25.4679H32.8221C34.7296 25.4679 36.264 24.4104 36.8134 22.6688C36.9482 22.2541 37.0208 21.7979 37.0208 21.3625C37.0363 18.3306 37.0344 15.3044 37.0324 12.2754C37.0318 11.2652 37.0311 10.2546 37.0311 9.24342C37.0311 8.78727 36.9275 8.68359 36.4817 8.68359C24.5077 8.68359 12.5234 8.6836 0.539082 8.69396C0.416654 8.69396 0.289226 8.759 0.163744 8.82304C0.10859 8.85119 0.0538121 8.87915 0 8.90131ZM9.25779 17.3919V17.931C9.36146 19.258 8.84311 19.7038 7.50575 19.7038C6.18914 19.7038 5.68115 19.2165 5.78482 17.9725C5.79667 17.8481 5.79498 17.7237 5.79329 17.5993C5.79202 17.506 5.79075 17.4127 5.79519 17.3194C5.81592 16.7077 6.28244 16.2308 6.90446 16.2101C7.29841 16.1997 7.682 16.1997 8.06558 16.2101C8.76017 16.2205 9.23706 16.6973 9.25779 17.3919Z" fill="url(#paint0_linear_486_507)"/>
<defs>
<linearGradient id="paint0_linear_486_507" x1="18.5169" y1="-6.56454e-07" x2="2.54198" y2="25.1421" gradientUnits="userSpaceOnUse">
<stop stop-color="#FF7E11"/>
<stop offset="1" stop-color="#FBE043"/>
</linearGradient>
</defs>
</svg>
