<svg width="20" height="20" viewBox="0 0 20 20" fill="none" xmlns="http://www.w3.org/2000/svg">
<g clip-path="url(#clip0_401_3527)">
<path d="M0 2.6693C0 2.02578 0.225232 1.49489 0.675676 1.07663C1.12612 0.65835 1.71172 0.449219 2.43243 0.449219C3.14029 0.449219 3.71299 0.655126 4.15058 1.06698C4.60102 1.49169 4.82626 2.04509 4.82626 2.72721C4.82626 3.34497 4.60747 3.85976 4.16988 4.27161C3.71944 4.69632 3.12741 4.90868 2.39382 4.90868H2.37452C1.66666 4.90868 1.09396 4.69632 0.656371 4.27161C0.218784 3.8469 0 3.31279 0 2.6693ZM0.250965 19.5612V6.66544H4.53668V19.5612H0.250965ZM6.9112 19.5612H11.1969V12.3604C11.1969 11.91 11.2484 11.5625 11.3514 11.3179C11.5315 10.8804 11.805 10.5103 12.1718 10.2079C12.5386 9.90545 12.9987 9.75424 13.5521 9.75424C14.9936 9.75424 15.7143 10.7259 15.7143 12.6693V19.5612H20V12.1674C20 10.2626 19.5496 8.81795 18.6486 7.83339C17.7477 6.84883 16.5573 6.35655 15.0772 6.35655C13.417 6.35655 12.1236 7.07084 11.1969 8.49941V8.53802H11.1776L11.1969 8.49941V6.66544H6.9112C6.93693 7.07727 6.94981 8.35783 6.94981 10.5071C6.94981 12.6564 6.93693 15.6744 6.9112 19.5612Z" fill="white"/>
</g>
<defs>
<clipPath id="clip0_401_3527">
<rect width="20" height="20" fill="white"/>
</clipPath>
</defs>
</svg>
