<svg width="44" height="44" viewBox="0 0 44 44" fill="none" xmlns="http://www.w3.org/2000/svg">
<path d="M22.5851 40.0165C21.8593 40.0165 21.1335 40.0165 20.4185 40.0165C20.3224 39.9952 20.237 39.9632 20.141 39.9525C17.8676 39.8031 15.6903 39.2587 13.6517 38.2555C7.97365 35.4591 4.49423 30.9444 3.28817 24.722C3.14942 24.0176 3.09606 23.3025 3 22.5874C3 21.8616 3 21.1465 3 20.4208C3.02135 20.314 3.05337 20.218 3.06404 20.1112C3.24548 17.5284 3.91789 15.0736 5.17731 12.8215C8.58202 6.75923 13.7905 3.45058 20.7386 3.03433C24.3888 2.8102 27.8362 3.68539 30.9528 5.60654C36.5668 9.07529 39.6086 14.145 40.0035 20.7303C40.1956 24.0709 39.4699 27.2515 37.8582 30.1866C34.9872 35.4058 30.6112 38.597 24.741 39.7283C24.0153 39.8671 23.3002 39.9205 22.5851 40.0165ZM22.6171 29.8344C23.3215 29.5783 24.0046 29.3968 24.6236 29.098C27.5267 27.6891 27.9643 24.6259 26.9077 22.534C26.4487 21.6268 25.6803 21.0078 24.7944 20.5702C23.7698 20.0685 22.6918 19.6736 21.6565 19.1934C21.1762 18.9799 20.696 18.7344 20.2797 18.4249C19.3511 17.7098 19.5433 16.5678 20.6426 16.1302C21.4217 15.8207 22.2329 15.874 23.0334 15.9701C23.5884 16.0448 24.1434 16.1942 24.6877 16.333C25.4455 16.5251 26.0111 16.2262 26.2246 15.4791C26.2993 15.223 26.374 14.9668 26.4167 14.7107C26.5341 14.0489 26.2246 13.5366 25.5949 13.3445C25.296 13.2485 24.9972 13.1631 24.6877 13.1204C24.0473 13.0136 23.4069 12.9389 22.7345 12.8429C22.7345 12.2772 22.7452 11.7115 22.7345 11.1565C22.7238 10.7296 22.5104 10.5162 22.0834 10.4948C21.6779 10.4841 21.2616 10.4841 20.856 10.4948C20.3437 10.5055 20.1196 10.7403 20.1196 11.2633C20.1196 11.7649 20.1089 12.2772 20.1196 12.7788C20.1303 12.9923 20.0662 13.0884 19.8421 13.1524C19.3191 13.3018 18.7961 13.4512 18.3159 13.6861C16.6935 14.4759 15.701 15.746 15.5836 17.5924C15.4555 19.4922 16.384 20.8263 17.985 21.7015C18.8388 22.1605 19.7674 22.4913 20.6533 22.8862C21.2616 23.1637 21.8913 23.4199 22.4677 23.7614C23.0654 24.1136 23.3749 24.6793 23.2468 25.4158C23.1294 26.1095 22.6171 26.4404 22.0087 26.6325C21.251 26.878 20.4505 26.8673 19.682 26.7392C18.9135 26.6111 18.1664 26.387 17.4086 26.1842C16.6935 25.9921 16.0852 26.291 15.8824 26.9954C15.797 27.2729 15.733 27.5504 15.6689 27.8385C15.5302 28.4789 15.797 29.0446 16.3947 29.2367C17.0458 29.4502 17.7075 29.6209 18.3799 29.7597C18.9029 29.8664 19.4472 29.9091 20.0022 29.9838C20.0022 30.5922 20.0022 31.1792 20.0022 31.7662C20.0129 32.2572 20.2157 32.4707 20.7066 32.492C21.0695 32.5027 21.4324 32.492 21.7953 32.492C22.457 32.492 22.6384 32.3106 22.6384 31.6595C22.6278 31.0405 22.6171 30.4214 22.6171 29.8344Z" fill="url(#paint0_linear_486_504)"/>
<defs>
<linearGradient id="paint0_linear_486_504" x1="21.5169" y1="3" x2="-4.04511" y2="30.6843" gradientUnits="userSpaceOnUse">
<stop stop-color="#FF7E11"/>
<stop offset="1" stop-color="#FBE043"/>
</linearGradient>
</defs>
</svg>
