<svg width="82" height="82" viewBox="0 0 82 82" fill="none" xmlns="http://www.w3.org/2000/svg">
<g filter="url(#filter0_b_2_663)">
<rect width="82" height="82" rx="10" fill="url(#paint0_linear_2_663)"/>
<rect x="0.5" y="0.5" width="81" height="81" rx="9.5" stroke="url(#paint1_linear_2_663)" stroke-opacity="0.2"/>
</g>
<path d="M41.5851 59.0165C40.8593 59.0165 40.1335 59.0165 39.4185 59.0165C39.3224 58.9952 39.237 58.9632 39.141 58.9525C36.8676 58.8031 34.6903 58.2587 32.6517 57.2555C26.9736 54.4591 23.4942 49.9444 22.2882 43.722C22.1494 43.0176 22.0961 42.3025 22 41.5874C22 40.8616 22 40.1465 22 39.4208C22.0213 39.314 22.0534 39.218 22.064 39.1112C22.2455 36.5284 22.9179 34.0736 24.1773 31.8215C27.582 25.7592 32.7905 22.4506 39.7386 22.0343C43.3888 21.8102 46.8362 22.6854 49.9528 24.6065C55.5668 28.0753 58.6086 33.145 59.0035 39.7303C59.1956 43.0709 58.4699 46.2515 56.8582 49.1866C53.9872 54.4058 49.6112 57.597 43.741 58.7283C43.0153 58.8671 42.3002 58.9205 41.5851 59.0165ZM41.6171 48.8344C42.3215 48.5783 43.0046 48.3968 43.6236 48.098C46.5267 46.6891 46.9643 43.6259 45.9077 41.534C45.4487 40.6268 44.6803 40.0078 43.7944 39.5702C42.7698 39.0685 41.6918 38.6736 40.6565 38.1934C40.1762 37.9799 39.696 37.7344 39.2797 37.4249C38.3511 36.7098 38.5433 35.5678 39.6426 35.1302C40.4217 34.8207 41.2329 34.874 42.0334 34.9701C42.5884 35.0448 43.1434 35.1942 43.6877 35.333C44.4455 35.5251 45.0111 35.2262 45.2246 34.4791C45.2993 34.223 45.374 33.9668 45.4167 33.7107C45.5341 33.0489 45.2246 32.5366 44.5949 32.3445C44.296 32.2485 43.9972 32.1631 43.6877 32.1204C43.0473 32.0136 42.4069 31.9389 41.7345 31.8429C41.7345 31.2772 41.7452 30.7115 41.7345 30.1565C41.7238 29.7296 41.5104 29.5162 41.0834 29.4948C40.6779 29.4841 40.2616 29.4841 39.856 29.4948C39.3437 29.5055 39.1196 29.7403 39.1196 30.2633C39.1196 30.7649 39.1089 31.2772 39.1196 31.7788C39.1303 31.9923 39.0662 32.0884 38.8421 32.1524C38.3191 32.3018 37.7961 32.4512 37.3159 32.6861C35.6935 33.4759 34.701 34.746 34.5836 36.5924C34.4555 38.4922 35.384 39.8263 36.985 40.7015C37.8388 41.1605 38.7674 41.4913 39.6533 41.8862C40.2616 42.1637 40.8913 42.4199 41.4677 42.7614C42.0654 43.1136 42.3749 43.6793 42.2468 44.4158C42.1294 45.1095 41.6171 45.4404 41.0087 45.6325C40.251 45.878 39.4505 45.8673 38.682 45.7392C37.9135 45.6111 37.1664 45.387 36.4086 45.1842C35.6935 44.9921 35.0852 45.291 34.8824 45.9954C34.797 46.2729 34.733 46.5504 34.6689 46.8385C34.5302 47.4789 34.797 48.0446 35.3947 48.2367C36.0458 48.4502 36.7075 48.6209 37.3799 48.7597C37.9029 48.8664 38.4472 48.9091 39.0022 48.9838C39.0022 49.5922 39.0022 50.1792 39.0022 50.7662C39.0129 51.2572 39.2157 51.4707 39.7066 51.492C40.0695 51.5027 40.4324 51.492 40.7953 51.492C41.457 51.492 41.6384 51.3106 41.6384 50.6595C41.6278 50.0405 41.6171 49.4214 41.6171 48.8344Z" fill="#39F063"/>
<defs>
<filter id="filter0_b_2_663" x="-50" y="-50" width="182" height="182" filterUnits="userSpaceOnUse" color-interpolation-filters="sRGB">
<feFlood flood-opacity="0" result="BackgroundImageFix"/>
<feGaussianBlur in="BackgroundImageFix" stdDeviation="25"/>
<feComposite in2="SourceAlpha" operator="in" result="effect1_backgroundBlur_2_663"/>
<feBlend mode="normal" in="SourceGraphic" in2="effect1_backgroundBlur_2_663" result="shape"/>
</filter>
<linearGradient id="paint0_linear_2_663" x1="-3.3255e-06" y1="-17" x2="82" y2="98" gradientUnits="userSpaceOnUse">
<stop stop-color="#292C31"/>
<stop offset="1" stop-color="#0D0D0D"/>
</linearGradient>
<linearGradient id="paint1_linear_2_663" x1="-1.24242" y1="-11.544" x2="82.6361" y2="-10.9701" gradientUnits="userSpaceOnUse">
<stop stop-color="white"/>
<stop offset="1" stop-color="white" stop-opacity="0"/>
</linearGradient>
</defs>
</svg>
