<svg width="38" height="38" viewBox="0 0 38 38" fill="none" xmlns="http://www.w3.org/2000/svg">
<path fill-rule="evenodd" clip-rule="evenodd" d="M18.8085 0C19.4653 0.28012 19.7165 0.782403 19.6875 1.49719C19.6604 2.10633 19.6666 2.71547 19.6726 3.32129C19.6753 3.58007 19.6778 3.83824 19.6778 4.09554C19.6778 4.81999 19.1659 5.35125 18.4994 5.34159C17.8426 5.33193 17.3693 4.81033 17.3596 4.09554C17.3596 3.83447 17.3622 3.5734 17.3648 3.31259C17.3709 2.70493 17.377 2.0987 17.35 1.49719C17.321 0.792062 17.5625 0.289776 18.229 0.00965693C18.4221 0 18.6152 0 18.8084 0H18.8085ZM37.0331 18.7988C36.753 19.4556 36.2507 19.7068 35.5359 19.6778C34.9269 19.6507 34.3179 19.6568 33.7123 19.6629H33.7122H33.7122H33.7121H33.712H33.712H33.7119H33.7118H33.7117H33.7115H33.7114H33.7113H33.7112H33.7111H33.711C33.4525 19.6655 33.1946 19.6681 32.9376 19.6681C32.2324 19.6681 31.7109 19.1852 31.6915 18.5283C31.6819 17.8618 32.2035 17.3596 32.9376 17.3596C33.1985 17.3596 33.4594 17.3622 33.7201 17.3648L33.7205 17.3648C34.3281 17.3709 34.9344 17.3769 35.5359 17.3499C36.2507 17.3209 36.7433 17.5721 37.0331 18.2289V18.7988ZM13.627 29.9109H22.9965C23.0683 29.7433 23.1329 29.5793 23.1962 29.4185L23.1962 29.4185L23.1962 29.4185L23.1962 29.4185L23.1962 29.4185L23.1962 29.4184C23.3117 29.1253 23.4229 28.8427 23.5664 28.5683C23.9447 27.8022 24.573 27.2491 25.2065 26.6915L25.2471 26.6557C28.5409 23.7676 29.8353 20.1454 28.8597 15.8759C27.5943 10.3508 22.4266 6.89281 16.8049 7.65589C10.4587 8.52523 6.24729 14.8907 7.91835 21.1016C8.5462 23.4488 9.83089 25.3807 11.7434 26.8682C12.5934 27.5347 13.1923 28.3558 13.5014 29.399C13.5406 29.54 13.5734 29.6811 13.6051 29.817L13.6051 29.8171L13.627 29.9109ZM25.2761 17.4262C25.2882 17.5397 25.3002 17.6532 25.3147 17.7692C25.3147 18.4163 25.025 18.88 24.5034 19.0442C24.0204 19.2084 23.4795 19.0442 23.1993 18.5999C23.0834 18.4067 22.9965 18.1652 22.9868 17.9334C22.8806 15.5186 21.1709 13.7992 18.7754 13.7123C18.0992 13.6929 17.5776 13.1907 17.5776 12.5628C17.5776 11.9156 18.1186 11.4134 18.8044 11.4037C21.9823 11.3844 24.8607 13.9248 25.2375 17.0834C25.2519 17.1992 25.264 17.3126 25.2761 17.426L25.2761 17.4261L25.2761 17.4261L25.2761 17.4261L25.2761 17.4262L25.2761 17.4262L25.2761 17.4262ZM13.8594 32.4062H23.0937C23.0937 32.6586 23.1021 32.9118 23.1105 33.1645C23.1291 33.7245 23.1476 34.282 23.0743 34.8211C22.9005 36.0961 21.7703 36.9944 20.4857 37.0137C19.2334 37.033 17.9907 37.0234 16.7385 37.0138H16.7383H16.7382H16.7381H16.7379H16.7378L16.7282 37.0137C15.26 37.0137 14.1685 36.0961 13.9656 34.6279C13.8971 34.1205 13.8869 33.6034 13.8764 33.0696C13.8721 32.8514 13.8678 32.6305 13.8594 32.4062ZM2.15402 19.6695C2.31501 19.6684 2.476 19.6674 2.63699 19.6674C2.80799 19.6674 2.97792 19.6685 3.14749 19.6695C3.48557 19.6717 3.82222 19.6738 4.16315 19.6674C4.82964 19.6577 5.35125 19.1458 5.34159 18.5083C5.33193 17.8611 4.81998 17.3685 4.14383 17.3588C3.15859 17.3491 2.16368 17.3491 1.17843 17.3588C0.502284 17.3588 0 17.8708 0 18.5179C0 19.1651 0.511941 19.6577 1.18809 19.6674C1.51 19.6738 1.8319 19.6717 2.15381 19.6695H2.15402ZM6.39289 5.07031C6.43258 5.09016 6.48182 5.11064 6.53654 5.1334C6.69486 5.19925 6.89896 5.28414 7.04971 5.42771C7.78382 6.12318 8.49861 6.83797 9.20374 7.57207C9.65773 8.04538 9.63841 8.7505 9.18442 9.19483C8.73044 9.63916 8.03496 9.64882 7.56166 9.18517C6.83721 8.48004 6.12243 7.76526 5.4173 7.04081C5.05991 6.67376 4.99229 6.23909 5.19513 5.77544C5.38832 5.31179 5.76503 5.10895 6.39289 5.07031ZM31.9014 6.51521C31.9231 6.46507 31.9427 6.41991 31.9611 6.38301C31.9225 5.76482 31.71 5.3881 31.256 5.1756C30.7924 4.97275 30.3577 5.04037 29.9906 5.39777C29.2662 6.1029 28.5514 6.81768 27.8463 7.54213C27.3826 8.01543 27.3826 8.71091 27.827 9.16489C28.281 9.6382 28.9861 9.64786 29.4787 9.16489C30.1935 8.46942 30.9083 7.7643 31.5941 7.03985C31.7411 6.88544 31.8322 6.67505 31.9014 6.51521ZM28.7934 27.4727C28.8402 27.499 28.9012 27.5253 28.9697 27.5549C29.1273 27.6229 29.3243 27.708 29.4792 27.8494C30.1125 28.4404 30.7162 29.0537 31.3228 29.6697L31.5849 29.9358C32.0679 30.4284 32.0679 31.1239 31.6139 31.5875C31.1502 32.0512 30.4548 32.0608 29.9621 31.5779C29.2474 30.8824 28.5422 30.1676 27.8371 29.4528C27.4797 29.0954 27.3928 28.6511 27.5956 28.1874C27.7888 27.7431 28.1559 27.521 28.7934 27.4727ZM5.20562 31.2772C5.40847 31.7119 5.77552 31.9147 6.3744 31.9534C6.41224 31.9357 6.45996 31.9181 6.51327 31.8983C6.66407 31.8425 6.85952 31.7702 7.00225 31.6346C7.77499 30.9005 8.51876 30.1568 9.25287 29.384C9.67788 28.9397 9.62959 28.2442 9.19492 27.8192C8.76025 27.3942 8.06477 27.3556 7.62045 27.7806C6.8477 28.5147 6.10395 29.2681 5.36984 30.0312C5.03176 30.3886 4.99312 30.8329 5.20562 31.2772Z" fill="url(#paint0_linear_486_494)"/>
<defs>
<linearGradient id="paint0_linear_486_494" x1="18.5166" y1="-9.54172e-07" x2="-7.05164" y2="27.6844" gradientUnits="userSpaceOnUse">
<stop stop-color="#FF7E11"/>
<stop offset="1" stop-color="#FBE043"/>
</linearGradient>
</defs>
</svg>
