<svg width="38" height="28" viewBox="0 0 38 28" fill="none" xmlns="http://www.w3.org/2000/svg">
<path fill-rule="evenodd" clip-rule="evenodd" d="M0 3.68583V24.0833C0.177768 24.7829 0.384209 25.4711 0.837232 26.056C1.6974 27.1627 2.82709 27.7706 4.2263 27.7706C12.719 27.7763 21.2175 27.7763 29.7103 27.7706C32.0155 27.7706 33.8735 25.9413 33.9251 23.6418C33.9449 22.8269 33.9401 22.012 33.9352 21.182C33.933 20.8089 33.9308 20.4326 33.9308 20.052H33.518C33.1601 20.052 32.8023 20.0535 32.4445 20.0551C31.6095 20.0587 30.7746 20.0623 29.9396 20.0463C26.3499 19.9717 23.4368 17.2077 23.1558 13.6179C22.8805 10.0912 25.3865 6.8914 28.9132 6.28928C29.3891 6.20899 29.8708 6.18032 30.3525 6.17459C31.1948 6.16232 32.0341 6.16463 32.8831 6.16697C33.2248 6.16791 33.568 6.16885 33.9136 6.16885L33.9167 6.10744C34.0076 4.25915 34.0969 2.44352 32.5202 1.07665C31.7231 0.382776 30.7998 0.00430085 29.7504 0.00430085C21.229 -0.00143362 12.7076 -0.00143362 4.1919 0.00430085C2.1791 0.00430085 0.470226 1.46086 0.0745481 3.45072C0.06444 3.49789 0.0483928 3.54308 0.0322225 3.58862C0.0208718 3.62058 0.00946045 3.65272 0 3.68583ZM37.0277 16.4718V13.1114C37.0277 12.7504 37.0283 12.3887 37.029 12.0268C37.0303 11.3023 37.0315 10.577 37.0277 9.85427C37.0277 8.92528 36.5862 8.478 35.6572 8.478C35.2029 8.478 34.7483 8.47764 34.2934 8.47728C32.9283 8.4762 31.5615 8.47513 30.198 8.48373C29.8654 8.48373 29.5213 8.50667 29.1944 8.57548C26.849 9.05718 25.2376 11.2076 25.467 13.5301C25.7079 15.9099 27.6461 17.699 30.0603 17.7277C31.6922 17.7474 33.324 17.7417 34.9559 17.7361C35.2279 17.7352 35.4999 17.7342 35.7719 17.7334C36.569 17.7334 37.0277 17.2689 37.0277 16.4718ZM30.1005 11.5689C30.9492 11.5746 31.6258 12.2685 31.6201 13.1229C31.6144 13.9773 30.9205 14.6655 30.0718 14.6598C29.2231 14.6483 28.5464 13.9601 28.5522 13.1C28.5579 12.2455 29.246 11.5631 30.1005 11.5689Z" fill="url(#paint0_linear_486_491)"/>
<defs>
<linearGradient id="paint0_linear_486_491" x1="32.5" y1="11" x2="0.18549" y2="24.5588" gradientUnits="userSpaceOnUse">
<stop stop-color="#FF7E11"/>
<stop offset="1" stop-color="#FBE043"/>
</linearGradient>
</defs>
</svg>
